<?xml version="1.0" encoding="UTF-8" standalone="no"?>
<!DOCTYPE svg PUBLIC "-//W3C//DTD SVG 1.1//EN"
 "http://www.w3.org/Graphics/SVG/1.1/DTD/svg11.dtd">
<!-- Generated by graphviz version 2.44.1 (20200629.0846)
 -->
<!-- Pages: 1 -->
<svg width="1170pt" height="548pt"
 viewBox="0.00 0.00 1170.05 548.00" xmlns="http://www.w3.org/2000/svg" xmlns:xlink="http://www.w3.org/1999/xlink">
<g id="graph0" class="graph" transform="scale(1 1) rotate(0) translate(4 544)">
<polygon fill="white" stroke="transparent" points="-4,4 -4,-544 1166.05,-544 1166.05,4 -4,4"/>
<!-- [root] aws_instance.server -->
<g id="node1" class="node">
<title>[root] aws_instance.server</title>
<polygon fill="none" stroke="black" points="514.55,-324 389.55,-324 389.55,-288 514.55,-288 514.55,-324"/>
<text text-anchor="middle" x="452.05" y="-302.3" font-family="Times,serif" font-size="14.00">aws_instance.server</text>
</g>
<!-- [root] data.aws_ami.ubuntu -->
<g id="node2" class="node">
<title>[root] data.aws_ami.ubuntu</title>
<polygon fill="none" stroke="black" points="281.55,-180 148.55,-180 148.55,-144 281.55,-144 281.55,-180"/>
<text text-anchor="middle" x="215.05" y="-158.3" font-family="Times,serif" font-size="14.00">data.aws_ami.ubuntu</text>
</g>
<!-- [root] aws_instance.server&#45;&gt;[root] data.aws_ami.ubuntu -->
<g id="edge1" class="edge">
<title>[root] aws_instance.server&#45;&gt;[root] data.aws_ami.ubuntu</title>
<path fill="none" stroke="black" d="M411.51,-287.9C389.84,-278.25 362.96,-265.44 340.05,-252 306.13,-232.11 269.77,-205.57 245.06,-186.66"/>
<polygon fill="black" stroke="black" points="246.89,-183.65 236.83,-180.31 242.61,-189.19 246.89,-183.65"/>
</g>
<!-- [root] data.template_file.server_user_data -->
<g id="node3" class="node">
<title>[root] data.template_file.server_user_data</title>
<polygon fill="none" stroke="black" points="816.55,-252 607.55,-252 607.55,-216 816.55,-216 816.55,-252"/>
<text text-anchor="middle" x="712.05" y="-230.3" font-family="Times,serif" font-size="14.00">data.template_file.server_user_data</text>
</g>
<!-- [root] aws_instance.server&#45;&gt;[root] data.template_file.server_user_data -->
<g id="edge2" class="edge">
<title>[root] aws_instance.server&#45;&gt;[root] data.template_file.server_user_data</title>
<path fill="none" stroke="black" d="M514.65,-288.14C552.06,-278.07 599.74,-265.24 638.88,-254.7"/>
<polygon fill="black" stroke="black" points="639.88,-258.05 648.63,-252.07 638.06,-251.29 639.88,-258.05"/>
</g>
<!-- [root] module.security_group.output.info -->
<g id="node6" class="node">
<title>[root] module.security_group.output.info</title>
<polygon fill="none" stroke="black" points="549.05,-252 349.05,-252 349.05,-216 555.05,-216 555.05,-246 549.05,-252"/>
<polyline fill="none" stroke="black" points="549.05,-252 549.05,-246 "/>
<polyline fill="none" stroke="black" points="555.05,-246 549.05,-246 "/>
<text text-anchor="middle" x="452.05" y="-230.3" font-family="Times,serif" font-size="14.00">module.security_group.output.info</text>
</g>
<!-- [root] aws_instance.server&#45;&gt;[root] module.security_group.output.info -->
<g id="edge3" class="edge">
<title>[root] aws_instance.server&#45;&gt;[root] module.security_group.output.info</title>
<path fill="none" stroke="black" d="M452.05,-287.7C452.05,-279.98 452.05,-270.71 452.05,-262.11"/>
<polygon fill="black" stroke="black" points="455.55,-262.1 452.05,-252.1 448.55,-262.1 455.55,-262.1"/>
</g>
<!-- [root] provider.aws -->
<g id="node12" class="node">
<title>[root] provider.aws</title>
<polygon fill="none" stroke="black" points="79.05,-108 -0.05,-90 79.05,-72 158.14,-90 79.05,-108"/>
<text text-anchor="middle" x="79.05" y="-86.3" font-family="Times,serif" font-size="14.00">provider.aws</text>
</g>
<!-- [root] data.aws_ami.ubuntu&#45;&gt;[root] provider.aws -->
<g id="edge4" class="edge">
<title>[root] data.aws_ami.ubuntu&#45;&gt;[root] provider.aws</title>
<path fill="none" stroke="black" d="M181.78,-143.88C160.27,-132.81 132.42,-118.47 111.15,-107.52"/>
<polygon fill="black" stroke="black" points="112.67,-104.37 102.18,-102.9 109.47,-110.59 112.67,-104.37"/>
</g>
<!-- [root] provider.template -->
<g id="node13" class="node">
<title>[root] provider.template</title>
<polygon fill="none" stroke="black" points="720.05,-180 616.32,-162 720.05,-144 823.78,-162 720.05,-180"/>
<text text-anchor="middle" x="720.05" y="-158.3" font-family="Times,serif" font-size="14.00">provider.template</text>
</g>
<!-- [root] data.template_file.server_user_data&#45;&gt;[root] provider.template -->
<g id="edge5" class="edge">
<title>[root] data.template_file.server_user_data&#45;&gt;[root] provider.template</title>
<path fill="none" stroke="black" d="M714.03,-215.7C714.91,-207.98 715.97,-198.71 716.95,-190.11"/>
<polygon fill="black" stroke="black" points="720.43,-190.44 718.09,-180.1 713.48,-189.64 720.43,-190.44"/>
</g>
<!-- [root] local.env -->
<g id="node4" class="node">
<title>[root] local.env</title>
<polygon fill="none" stroke="black" points="106.05,-36 46.05,-36 46.05,0 112.05,0 112.05,-30 106.05,-36"/>
<polyline fill="none" stroke="black" points="106.05,-36 106.05,-30 "/>
<polyline fill="none" stroke="black" points="112.05,-30 106.05,-30 "/>
<text text-anchor="middle" x="79.05" y="-14.3" font-family="Times,serif" font-size="14.00">local.env</text>
</g>
<!-- [root] module.security_group.aws_security_group.server -->
<g id="node5" class="node">
<title>[root] module.security_group.aws_security_group.server</title>
<polygon fill="none" stroke="black" points="598.05,-180 306.05,-180 306.05,-144 598.05,-144 598.05,-180"/>
<text text-anchor="middle" x="452.05" y="-158.3" font-family="Times,serif" font-size="14.00">module.security_group.aws_security_group.server</text>
</g>
<!-- [root] module.security_group.var.allow_outbound -->
<g id="node7" class="node">
<title>[root] module.security_group.var.allow_outbound</title>
<polygon fill="none" stroke="black" points="1156.05,-108 908.05,-108 908.05,-72 1162.05,-72 1162.05,-102 1156.05,-108"/>
<polyline fill="none" stroke="black" points="1156.05,-108 1156.05,-102 "/>
<polyline fill="none" stroke="black" points="1162.05,-102 1156.05,-102 "/>
<text text-anchor="middle" x="1035.05" y="-86.3" font-family="Times,serif" font-size="14.00">module.security_group.var.allow_outbound</text>
</g>
<!-- [root] module.security_group.aws_security_group.server&#45;&gt;[root] module.security_group.var.allow_outbound -->
<g id="edge7" class="edge">
<title>[root] module.security_group.aws_security_group.server&#45;&gt;[root] module.security_group.var.allow_outbound</title>
<path fill="none" stroke="black" d="M597.52,-143.99C682.3,-134.02 791.55,-121.07 898.04,-108.12"/>
<polygon fill="black" stroke="black" points="898.5,-111.59 908,-106.91 897.65,-104.64 898.5,-111.59"/>
</g>
<!-- [root] module.security_group.var.allowed_inbound_ports -->
<g id="node8" class="node">
<title>[root] module.security_group.var.allowed_inbound_ports</title>
<polygon fill="none" stroke="black" points="464.05,-108 176.05,-108 176.05,-72 470.05,-72 470.05,-102 464.05,-108"/>
<polyline fill="none" stroke="black" points="464.05,-108 464.05,-102 "/>
<polyline fill="none" stroke="black" points="470.05,-102 464.05,-102 "/>
<text text-anchor="middle" x="323.05" y="-86.3" font-family="Times,serif" font-size="14.00">module.security_group.var.allowed_inbound_ports</text>
</g>
<!-- [root] module.security_group.aws_security_group.server&#45;&gt;[root] module.security_group.var.allowed_inbound_ports -->
<g id="edge8" class="edge">
<title>[root] module.security_group.aws_security_group.server&#45;&gt;[root] module.security_group.var.allowed_inbound_ports</title>
<path fill="none" stroke="black" d="M420.49,-143.88C403.39,-134.6 382.07,-123.03 363.73,-113.08"/>
<polygon fill="black" stroke="black" points="365.18,-109.88 354.73,-108.19 361.85,-116.04 365.18,-109.88"/>
</g>
<!-- [root] module.security_group.var.env -->
<g id="node9" class="node">
<title>[root] module.security_group.var.env</title>
<polygon fill="none" stroke="black" points="668.05,-108 488.05,-108 488.05,-72 674.05,-72 674.05,-102 668.05,-108"/>
<polyline fill="none" stroke="black" points="668.05,-108 668.05,-102 "/>
<polyline fill="none" stroke="black" points="674.05,-102 668.05,-102 "/>
<text text-anchor="middle" x="581.05" y="-86.3" font-family="Times,serif" font-size="14.00">module.security_group.var.env</text>
</g>
<!-- [root] module.security_group.aws_security_group.server&#45;&gt;[root] module.security_group.var.env -->
<g id="edge9" class="edge">
<title>[root] module.security_group.aws_security_group.server&#45;&gt;[root] module.security_group.var.env</title>
<path fill="none" stroke="black" d="M483.6,-143.88C500.71,-134.6 522.03,-123.03 540.37,-113.08"/>
<polygon fill="black" stroke="black" points="542.25,-116.04 549.37,-108.19 538.91,-109.88 542.25,-116.04"/>
</g>
<!-- [root] module.security_group.var.name -->
<g id="node10" class="node">
<title>[root] module.security_group.var.name</title>
<polygon fill="none" stroke="black" points="883.55,-108 692.55,-108 692.55,-72 889.55,-72 889.55,-102 883.55,-108"/>
<polyline fill="none" stroke="black" points="883.55,-108 883.55,-102 "/>
<polyline fill="none" stroke="black" points="889.55,-102 883.55,-102 "/>
<text text-anchor="middle" x="791.05" y="-86.3" font-family="Times,serif" font-size="14.00">module.security_group.var.name</text>
</g>
<!-- [root] module.security_group.aws_security_group.server&#45;&gt;[root] module.security_group.var.name -->
<g id="edge10" class="edge">
<title>[root] module.security_group.aws_security_group.server&#45;&gt;[root] module.security_group.var.name</title>
<path fill="none" stroke="black" d="M534.54,-143.97C584.06,-133.74 647.17,-120.71 698.4,-110.13"/>
<polygon fill="black" stroke="black" points="699.39,-113.5 708.48,-108.05 697.98,-106.64 699.39,-113.5"/>
</g>
<!-- [root] module.security_group.aws_security_group.server&#45;&gt;[root] provider.aws -->
<g id="edge11" class="edge">
<title>[root] module.security_group.aws_security_group.server&#45;&gt;[root] provider.aws</title>
<path fill="none" stroke="black" d="M359.6,-143.98C303.82,-133.66 231.33,-120.19 167.05,-108 154.86,-105.69 141.74,-103.17 129.44,-100.8"/>
<polygon fill="black" stroke="black" points="129.82,-97.31 119.34,-98.84 128.49,-104.18 129.82,-97.31"/>
</g>
<!-- [root] module.security_group.output.info&#45;&gt;[root] module.security_group.aws_security_group.server -->
<g id="edge12" class="edge">
<title>[root] module.security_group.output.info&#45;&gt;[root] module.security_group.aws_security_group.server</title>
<path fill="none" stroke="black" d="M452.05,-215.7C452.05,-207.98 452.05,-198.71 452.05,-190.11"/>
<polygon fill="black" stroke="black" points="455.55,-190.1 452.05,-180.1 448.55,-190.1 455.55,-190.1"/>
</g>
<!-- [root] var.student_alias -->
<g id="node14" class="node">
<title>[root] var.student_alias</title>
<polygon fill="none" stroke="black" points="838.55,-36 737.55,-36 737.55,0 844.55,0 844.55,-30 838.55,-36"/>
<polyline fill="none" stroke="black" points="838.55,-36 838.55,-30 "/>
<polyline fill="none" stroke="black" points="844.55,-30 838.55,-30 "/>
<text text-anchor="middle" x="791.05" y="-14.3" font-family="Times,serif" font-size="14.00">var.student_alias</text>
</g>
<!-- [root] module.security_group.var.name&#45;&gt;[root] var.student_alias -->
<g id="edge13" class="edge">
<title>[root] module.security_group.var.name&#45;&gt;[root] var.student_alias</title>
<path fill="none" stroke="black" d="M791.05,-71.7C791.05,-63.98 791.05,-54.71 791.05,-46.11"/>
<polygon fill="black" stroke="black" points="794.55,-46.1 791.05,-36.1 787.55,-46.1 794.55,-46.1"/>
</g>
<!-- [root] output.server_public_ip -->
<g id="node11" class="node">
<title>[root] output.server_public_ip</title>
<polygon fill="none" stroke="black" points="507.05,-396 367.05,-396 367.05,-360 513.05,-360 513.05,-390 507.05,-396"/>
<polyline fill="none" stroke="black" points="507.05,-396 507.05,-390 "/>
<polyline fill="none" stroke="black" points="513.05,-390 507.05,-390 "/>
<text text-anchor="middle" x="440.05" y="-374.3" font-family="Times,serif" font-size="14.00">output.server_public_ip</text>
</g>
<!-- [root] output.server_public_ip&#45;&gt;[root] aws_instance.server -->
<g id="edge14" class="edge">
<title>[root] output.server_public_ip&#45;&gt;[root] aws_instance.server</title>
<path fill="none" stroke="black" d="M443.01,-359.7C444.34,-351.98 445.93,-342.71 447.4,-334.11"/>
<polygon fill="black" stroke="black" points="450.88,-334.55 449.12,-324.1 443.98,-333.37 450.88,-334.55"/>
</g>
<!-- [root] provider.aws&#45;&gt;[root] local.env -->
<g id="edge16" class="edge">
<title>[root] provider.aws&#45;&gt;[root] local.env</title>
<path fill="none" stroke="black" d="M79.05,-71.7C79.05,-63.98 79.05,-54.71 79.05,-46.11"/>
<polygon fill="black" stroke="black" points="82.55,-46.1 79.05,-36.1 75.55,-46.1 82.55,-46.1"/>
</g>
<!-- [root] meta.count&#45;boundary (EachMode fixup) -->
<g id="node15" class="node">
<title>[root] meta.count&#45;boundary (EachMode fixup)</title>
<ellipse fill="none" stroke="black" cx="280.05" cy="-450" rx="176.27" ry="18"/>
<text text-anchor="middle" x="280.05" y="-446.3" font-family="Times,serif" font-size="14.00">[root] meta.count&#45;boundary (EachMode fixup)</text>
</g>
<!-- [root] meta.count&#45;boundary (EachMode fixup)&#45;&gt;[root] output.server_public_ip -->
<g id="edge6" class="edge">
<title>[root] meta.count&#45;boundary (EachMode fixup)&#45;&gt;[root] output.server_public_ip</title>
<path fill="none" stroke="black" d="M317.97,-432.41C340.07,-422.74 368.18,-410.44 391.84,-400.09"/>
<polygon fill="black" stroke="black" points="393.25,-403.29 401.01,-396.08 390.45,-396.88 393.25,-403.29"/>
</g>
<!-- [root] provider.aws (close) -->
<g id="node16" class="node">
<title>[root] provider.aws (close)</title>
<ellipse fill="none" stroke="black" cx="579.05" cy="-450" rx="104.78" ry="18"/>
<text text-anchor="middle" x="579.05" y="-446.3" font-family="Times,serif" font-size="14.00">[root] provider.aws (close)</text>
</g>
<!-- [root] provider.aws (close)&#45;&gt;[root] aws_instance.server -->
<g id="edge15" class="edge">
<title>[root] provider.aws (close)&#45;&gt;[root] aws_instance.server</title>
<path fill="none" stroke="black" d="M570.53,-432.03C560.55,-413.15 542.72,-382.37 522.05,-360 511.89,-349.01 499.23,-338.66 487.48,-330.07"/>
<polygon fill="black" stroke="black" points="489.31,-327.07 479.13,-324.14 485.26,-332.78 489.31,-327.07"/>
</g>
<!-- [root] provider.template (close) -->
<g id="node17" class="node">
<title>[root] provider.template (close)</title>
<ellipse fill="none" stroke="black" cx="712.05" cy="-378" rx="122.38" ry="18"/>
<text text-anchor="middle" x="712.05" y="-374.3" font-family="Times,serif" font-size="14.00">[root] provider.template (close)</text>
</g>
<!-- [root] provider.template (close)&#45;&gt;[root] data.template_file.server_user_data -->
<g id="edge17" class="edge">
<title>[root] provider.template (close)&#45;&gt;[root] data.template_file.server_user_data</title>
<path fill="none" stroke="black" d="M712.05,-359.87C712.05,-335.67 712.05,-291.21 712.05,-262.39"/>
<polygon fill="black" stroke="black" points="715.55,-262.19 712.05,-252.19 708.55,-262.19 715.55,-262.19"/>
</g>
<!-- [root] root -->
<g id="node18" class="node">
<title>[root] root</title>
<ellipse fill="none" stroke="black" cx="579.05" cy="-522" rx="47.39" ry="18"/>
<text text-anchor="middle" x="579.05" y="-518.3" font-family="Times,serif" font-size="14.00">[root] root</text>
</g>
<!-- [root] root&#45;&gt;[root] meta.count&#45;boundary (EachMode fixup) -->
<g id="edge18" class="edge">
<title>[root] root&#45;&gt;[root] meta.count&#45;boundary (EachMode fixup)</title>
<path fill="none" stroke="black" d="M539.65,-511.78C493.33,-500.93 415.37,-482.68 356.94,-469"/>
<polygon fill="black" stroke="black" points="357.54,-465.55 347.01,-466.68 355.95,-472.36 357.54,-465.55"/>
</g>
<!-- [root] root&#45;&gt;[root] provider.aws (close) -->
<g id="edge19" class="edge">
<title>[root] root&#45;&gt;[root] provider.aws (close)</title>
<path fill="none" stroke="black" d="M579.05,-503.7C579.05,-495.98 579.05,-486.71 579.05,-478.11"/>
<polygon fill="black" stroke="black" points="582.55,-478.1 579.05,-468.1 575.55,-478.1 582.55,-478.1"/>
</g>
<!-- [root] root&#45;&gt;[root] provider.template (close) -->
<g id="edge20" class="edge">
<title>[root] root&#45;&gt;[root] provider.template (close)</title>
<path fill="none" stroke="black" d="M619.07,-512.11C643.98,-504.52 674.68,-491.04 693.05,-468 706.86,-450.67 711.24,-425.62 712.38,-406.5"/>
<polygon fill="black" stroke="black" points="715.88,-406.42 712.72,-396.31 708.89,-406.19 715.88,-406.42"/>
</g>
</g>
</svg>
